<svg xmlns="http://www.w3.org/2000/svg" viewBox="0 0 159.01 159.01">
  <title>crump-white-logo</title>
  <path d="M0,0V159H159V0ZM157.37,157.37H1.64V1.64H157.37ZM22.67,44.86h1.84V16.94H35.84V15.25H11.35v1.69H22.67ZM40.88,30.34H61.66V44.86h1.83V15.25H61.66v13.4H40.88V15.25H39.05V44.86h1.83ZM85.22,43.17H68.93V30.34H83.14V28.65H68.93V16.94H84.87V15.25H67.1V44.86H85.22ZM31.72,89.36V87.67H13.52v29.61h1.83v-14H30v-1.7H15.35V89.36Zm4.14,27.92H37.7V87.67H35.86ZM63.23,95.71a7.3,7.3,0,0,0-3.14-5.94c-2-1.43-4.83-2.1-9-2.1H42.23v29.61h1.84V103.75h8l11.11,13.53h2.29L54.2,103.61a11.72,11.72,0,0,0,6.31-2.25A7.13,7.13,0,0,0,63.23,95.71Zm-3.9,4.38c-1.64,1.34-4,2-7.49,2H44.07V89.36h7c3.9,0,6.09.47,7.82,1.67a5.67,5.67,0,0,1,.42,9.06Zm9.43-9.2L81.93,108,95.11,90.89v26.39H97V87.67H95.36L81.93,105.06,68.63,87.83l-.12-.16H66.92v29.61h1.84ZM11.57,66.16c0,8.84,7.19,15.24,17.09,15.24a20,20,0,0,0,8.86-1.91l.22-.11v-2l-.6.32a18.38,18.38,0,0,1-8.48,2c-8.84,0-15.26-5.7-15.26-13.55s6.42-13.55,15.26-13.55a17.33,17.33,0,0,1,7.83,1.75l.59.3v-2l-.25-.11a21,21,0,0,0-8.17-1.66C18.76,50.92,11.57,57.33,11.57,66.16ZM60,65.05a7.1,7.1,0,0,0,2.72-5.65,7.28,7.28,0,0,0-3.13-5.93c-2-1.44-4.83-2.11-9-2.11h-8.9V81h1.83V67.45h8L62.67,81H65L53.72,67.3A11.6,11.6,0,0,0,60,65.05Zm-8.66.71H43.58V53.05h7c3.89,0,6.08.47,7.82,1.68a5.65,5.65,0,0,1,.41,9.05C57.21,65.13,54.83,65.76,51.36,65.76ZM72.11,77.51c-2.25-2-3.13-5-3.13-10.75V51.36H67.14v15.4c0,6.23,1,9.57,3.63,11.91,2,1.84,4.94,2.77,8.6,2.77,4.46,0,7.74-1.35,9.75-4,1.78-2.35,2.47-5.34,2.47-10.66V51.36H89.8v15.4c0,5.06-.62,7.8-2.21,9.76-1.73,2.15-4.42,3.19-8.22,3.19C76.18,79.71,73.81,79,72.11,77.51Zm25-22.93L110.3,71.64l13.17-17.06V81h1.84V51.36h-1.59L110.3,68.76,96.87,51.36H95.28V81h1.84Zm33.23,13.66h6.94c4.44,0,7.37-.68,9.48-2.22a7.6,7.6,0,0,0,0-12.43c-2.12-1.54-5.05-2.23-9.49-2.23h-8.78V81h1.84Zm0-15.19h6.94c5.09,0,7,.9,8.34,1.87a6,6,0,0,1,0,9.76c-1.32,1-3.25,1.87-8.34,1.87h-6.94Zm21,75.29H6.54V130H151.38ZM19.24,138H17.78l-4.06,8.88h1.74l1.06-2.36h3.95l1.05,2.36h1.8l-4-8.75Zm-2.1,5.12.63-1.41c.26-.57.5-1.13.74-1.67l.7,1.64.64,1.44Zm18.14-.34a2.4,2.4,0,0,0,1.32-2.17,2.34,2.34,0,0,0-1.42-2.16,6,6,0,0,0-2.72-.45H29.7v8.88h1.67v-3.62h1.27l2.87,3.62h2.05l-3.06-3.79A3,3,0,0,0,35.28,142.8Zm-2.53-.86H31.37v-2.48h1a4.38,4.38,0,0,1,1.92.26,1.07,1.07,0,0,1,.64,1,1,1,0,0,1-.46.87A3,3,0,0,1,32.75,141.94Zm15.83,3.62c-2,0-3.53-1.3-3.53-3.1a3.16,3.16,0,0,1,3.42-3.1,4.72,4.72,0,0,1,2.54.74l.34.23v-1.76l-.12-.06a6.18,6.18,0,0,0-2.75-.62c-2.95,0-5.1,1.93-5.1,4.59S45.54,147,48.51,147a5.86,5.86,0,0,0,2.87-.68l.11-.06V144.5l-.35.25A4.31,4.31,0,0,1,48.58,145.56Zm16.32-4H60.22V138H58.55v8.88h1.67V143H64.9v3.88h1.67V138H64.9Zm9.15,5.32h1.67V138H74.05Zm8.38-7.44h3.15v7.44h1.67v-7.44H90.4V138h-8ZM98.77,143h3.67v-1.4H98.77v-2.13H103V138H97.1v8.88h6v-1.44h-4.3Zm16,2.57a3.23,3.23,0,0,1-3.53-3.1,3.17,3.17,0,0,1,3.43-3.1,4.72,4.72,0,0,1,2.54.74l.34.23v-1.76l-.12-.06a6.24,6.24,0,0,0-2.75-.62c-3,0-5.11,1.93-5.11,4.59s2.16,4.54,5.14,4.54a5.88,5.88,0,0,0,2.87-.68l.11-.06V144.5l-.35.25A4.34,4.34,0,0,1,114.75,145.56Zm9.18-6.1h3.15v7.44h1.67v-7.44h3.15V138h-8Zm17.94,2.24-.29-.07c-1.1-.27-1.78-.48-1.78-1.23,0-.92,1-1.06,1.57-1.06a5.21,5.21,0,0,1,2.61.75l.33.21v-1.68l-.11-.07a5.94,5.94,0,0,0-2.8-.66c-2,0-3.25,1-3.25,2.58,0,1.87,1.8,2.33,2.77,2.57l.28.07c1.2.3,1.89.51,1.89,1.31,0,1-1.18,1.15-1.69,1.15a5,5,0,0,1-2.72-.82l-.34-.24v1.76l.11.06a6.5,6.5,0,0,0,2.94.69c2,0,3.35-1,3.35-2.66C144.74,142.59,143.26,142.06,141.87,141.7Z" fill="none"/>
</svg>
