<svg xmlns="http://www.w3.org/2000/svg" xmlns:xlink="http://www.w3.org/1999/xlink" viewBox="0 0 144 144">
  <defs>
    <clipPath id="a">
      <rect y="0.11" width="143.89" height="143.83" fill="none"/>
    </clipPath>
  </defs>
  <title>crump-logo-solid</title>
  <g clip-path="url(#a)">
    <rect y="0.11" width="143.89" height="143.83" fill="#3f2433"/>
  </g>
  <polyline points="20.36 14.31 9.98 14.31 9.98 13.5 31.67 13.5 31.67 14.31 21.29 14.31 21.29 39.93 20.36 39.93 20.36 14.31" fill="#fff"/>
  <polygon points="20.36 14.31 9.98 14.31 9.98 13.5 31.67 13.5 31.67 14.31 21.29 14.31 21.29 39.93 20.36 39.93 20.36 14.31" fill="none" stroke="#fff" stroke-miterlimit="10" stroke-width="0.5"/>
  <polyline points="35.36 13.5 36.3 13.5 36.3 25.8 56.09 25.8 56.09 13.5 57.02 13.5 57.02 39.93 56.09 39.93 56.09 26.61 36.3 26.61 36.3 39.93 35.36 39.93 35.36 13.5" fill="#fff"/>
  <polygon points="35.36 13.5 36.3 13.5 36.3 25.8 56.09 25.8 56.09 13.5 57.02 13.5 57.02 39.93 56.09 39.93 56.09 26.61 36.3 26.61 36.3 39.93 35.36 39.93 35.36 13.5" fill="none" stroke="#fff" stroke-miterlimit="10" stroke-width="0.5"/>
  <polyline points="61.08 13.5 76.61 13.5 76.61 14.31 62.01 14.31 62.01 25.8 75.03 25.8 75.03 26.61 62.01 26.61 62.01 39.13 76.93 39.13 76.93 39.93 61.08 39.93 61.08 13.5" fill="#fff"/>
  <polygon points="61.08 13.5 76.61 13.5 76.61 14.31 62.01 14.31 62.01 25.8 75.03 25.8 75.03 26.61 62.01 26.61 62.01 39.13 76.93 39.13 76.93 39.93 61.08 39.93 61.08 13.5" fill="none" stroke="#fff" stroke-miterlimit="10" stroke-width="0.5"/>
  <polyline points="11.96 79.97 27.9 79.97 27.9 80.77 12.9 80.77 12.9 92.78 26.32 92.78 26.32 93.58 12.9 93.58 12.9 106.39 11.96 106.39 11.96 79.97" fill="#fff"/>
  <polygon points="11.96 79.97 27.9 79.97 27.9 80.77 12.9 80.77 12.9 92.78 26.32 92.78 26.32 93.58 12.9 93.58 12.9 106.39 11.96 106.39 11.96 79.97" fill="none" stroke="#fff" stroke-miterlimit="10" stroke-width="0.5"/>
  <rect x="32.44" y="79.97" width="0.93" height="26.43" fill="#fff"/>
  <rect x="32.44" y="79.97" width="0.93" height="26.43" fill="none" stroke="#fff" stroke-miterlimit="10" stroke-width="0.5"/>
  <path d="M38.28,80h7.79c3.89,0,6.33.66,8,1.86A6.33,6.33,0,0,1,56.78,87a6.22,6.22,0,0,1-2.36,4.89,11.09,11.09,0,0,1-6.28,2L58.4,106.4H57.26L47.08,94H39.22V106.4h-.94V80m8.44,13.21c3.53,0,5.64-.69,7.1-1.9a5.58,5.58,0,0,0-.41-8.9c-1.62-1.13-3.61-1.61-7.38-1.61H39.22V93.18Z" fill="#fff"/>
  <path d="M38.28,80h7.79c3.89,0,6.33.66,8,1.86A6.33,6.33,0,0,1,56.78,87a6.22,6.22,0,0,1-2.36,4.89,11.09,11.09,0,0,1-6.28,2L58.4,106.4H57.26L47.08,94H39.22V106.4h-.94Zm8.44,13.21c3.53,0,5.64-.69,7.1-1.9a5.58,5.58,0,0,0-.41-8.9c-1.62-1.13-3.61-1.61-7.38-1.61H39.22V93.18Z" fill="none" stroke="#fff" stroke-miterlimit="10" stroke-width="0.5"/>
  <polyline points="60.91 79.97 61.8 79.97 74.3 96.17 86.79 79.97 87.68 79.97 87.68 106.39 86.75 106.39 86.75 81.5 86.71 81.5 74.3 97.6 61.89 81.5 61.84 81.5 61.84 106.39 60.91 106.39 60.91 79.97" fill="#fff"/>
  <polygon points="60.91 79.97 61.8 79.97 74.3 96.17 86.79 79.97 87.68 79.97 87.68 106.39 86.75 106.39 86.75 81.5 86.71 81.5 74.3 97.6 61.89 81.5 61.84 81.5 61.84 106.39 60.91 106.39 60.91 79.97" fill="none" stroke="#fff" stroke-miterlimit="10" stroke-width="0.5"/>
  <path d="M25.47,46.24a18.77,18.77,0,0,1,7.34,1.5v.95a16.23,16.23,0,0,0-7.34-1.64c-8.72,0-14.36,5.69-14.36,12.81s5.64,12.81,14.36,12.81a17.23,17.23,0,0,0,8-1.86v1a18,18,0,0,1-8,1.71c-9.21,0-15.29-6-15.29-13.61s6-13.62,15.29-13.62" fill="#fff"/>
  <path d="M25.47,46.24a18.77,18.77,0,0,1,7.34,1.5v.95a16.23,16.23,0,0,0-7.34-1.64c-8.72,0-14.36,5.69-14.36,12.81s5.64,12.81,14.36,12.81a17.23,17.23,0,0,0,8-1.86v1a18,18,0,0,1-8,1.71c-9.21,0-15.29-6-15.29-13.61S16.18,46.24,25.47,46.24Z" fill="none" stroke="#fff" stroke-miterlimit="10" stroke-width="0.5"/>
  <path d="M37.84,46.64h7.78c3.9,0,6.33.66,8,1.87a6.29,6.29,0,0,1,2.71,5.14A6.18,6.18,0,0,1,54,58.54a11.1,11.1,0,0,1-6.29,2.05L58,73.07H56.82L46.64,60.66H38.77V73.07h-.93V46.64m8.43,13.22c3.53,0,5.64-.7,7.1-1.9a5.58,5.58,0,0,0-.4-8.91c-1.63-1.13-3.61-1.6-7.39-1.6H38.77V59.86Z" fill="#fff"/>
  <path d="M37.84,46.64h7.78c3.9,0,6.33.66,8,1.87a6.29,6.29,0,0,1,2.71,5.14A6.18,6.18,0,0,1,54,58.54a11.1,11.1,0,0,1-6.29,2.05L58,73.07H56.82L46.64,60.66H38.77V73.07h-.93Zm8.43,13.22c3.53,0,5.64-.7,7.1-1.9a5.58,5.58,0,0,0-.4-8.91c-1.63-1.13-3.61-1.6-7.39-1.6H38.77V59.86Z" fill="none" stroke="#fff" stroke-miterlimit="10" stroke-width="0.5"/>
  <path d="M61.12,60.4V46.64h.93V60.4c0,5,.69,8.14,3,10.15,1.5,1.32,3.69,2.12,6.89,2.12,3.9,0,6.33-1.21,7.83-3.07s2.11-4.74,2.11-9.2V46.64h.89V60.4c0,4.68-.56,7.41-2.19,9.57s-4.34,3.54-8.64,3.54c-3.52,0-6-1-7.62-2.45-2.43-2.19-3.2-5.36-3.2-10.66" fill="#fff"/>
  <path d="M61.12,60.4V46.64h.93V60.4c0,5,.69,8.14,3,10.15,1.5,1.32,3.69,2.12,6.89,2.12,3.9,0,6.33-1.21,7.83-3.07s2.11-4.74,2.11-9.2V46.64h.89V60.4c0,4.68-.56,7.41-2.19,9.57s-4.34,3.54-8.64,3.54c-3.52,0-6-1-7.62-2.45C61.89,68.87,61.12,65.7,61.12,60.4Z" fill="none" stroke="#fff" stroke-miterlimit="10" stroke-width="0.5"/>
  <polyline points="86.91 46.64 87.8 46.64 100.29 62.85 112.78 46.64 113.68 46.64 113.68 73.07 112.74 73.07 112.74 48.18 112.7 48.18 100.29 64.27 87.88 48.18 87.84 48.18 87.84 73.07 86.91 73.07 86.91 46.64" fill="#fff"/>
  <polygon points="86.91 46.64 87.8 46.64 100.29 62.85 112.78 46.64 113.68 46.64 113.68 73.07 112.74 73.07 112.74 48.18 112.7 48.18 100.29 64.27 87.88 48.18 87.84 48.18 87.84 73.07 86.91 73.07 86.91 46.64" fill="none" stroke="#fff" stroke-miterlimit="10" stroke-width="0.5"/>
  <path d="M117.36,73.07V46.64H125c4.38,0,6.77.74,8.48,2a6.62,6.62,0,0,1,0,10.8c-1.71,1.24-4.1,2-8.48,2H118.3V73.07h-.94M125,60.59c4.3,0,6.33-.66,7.87-1.79a5.86,5.86,0,0,0,0-9.56c-1.54-1.13-3.57-1.79-7.87-1.79H118.3V60.59Z" fill="#fff"/>
  <path d="M117.36,73.07V46.64H125c4.38,0,6.77.74,8.48,2a6.62,6.62,0,0,1,0,10.8c-1.71,1.24-4.1,2-8.48,2H118.3V73.07ZM125,60.59c4.3,0,6.33-.66,7.87-1.79a5.86,5.86,0,0,0,0-9.56c-1.54-1.13-3.57-1.79-7.87-1.79H118.3V60.59Z" fill="none" stroke="#fff" stroke-miterlimit="10" stroke-width="0.5"/>
  <line x1="5.19" y1="116.67" x2="137.94" y2="116.67" fill="none" stroke="#fff" stroke-width="1.25"/>
  <path d="M15.63,126h1.08l3.55,7.75H19.05l-1-2.16H14.21l-1,2.16H12.09L15.63,126m-1,4.7H17.7L17,129.1c-.28-.62-.56-1.28-.83-1.91h0c-.26.63-.55,1.28-.84,1.95Z" fill="#fff"/>
  <path d="M15.63,126h1.08l3.55,7.75H19.05l-1-2.16H14.21l-1,2.16H12.09Zm-1,4.7H17.7L17,129.1c-.28-.62-.56-1.28-.83-1.91h0c-.26.63-.55,1.28-.84,1.95Z" fill="none" stroke="#fff" stroke-miterlimit="10" stroke-width="0.25"/>
  <path d="M26.63,126H29a5.24,5.24,0,0,1,2.4.39,2,2,0,0,1,1.19,1.8A2,2,0,0,1,31.44,130a2.81,2.81,0,0,1-1,.32l2.76,3.42H31.84l-2.62-3.32H27.75v3.32H26.63V126m2.59,3.59a3,3,0,0,0,1.69-.35,1.09,1.09,0,0,0,.51-1,1.18,1.18,0,0,0-.7-1.1,4.17,4.17,0,0,0-1.85-.26H27.75v2.67Z" fill="#fff"/>
  <path d="M26.63,126H29a5.24,5.24,0,0,1,2.4.39,2,2,0,0,1,1.19,1.8A2,2,0,0,1,31.44,130a2.81,2.81,0,0,1-1,.32l2.76,3.42H31.84l-2.62-3.32H27.75v3.32H26.63Zm2.59,3.59a3,3,0,0,0,1.69-.35,1.09,1.09,0,0,0,.51-1,1.18,1.18,0,0,0-.7-1.1,4.17,4.17,0,0,0-1.85-.26H27.75v2.67Z" fill="none" stroke="#fff" stroke-miterlimit="10" stroke-width="0.25"/>
  <path d="M43.64,125.89a5.43,5.43,0,0,1,2.42.55v1.11a4.46,4.46,0,0,0-2.43-.72,3.07,3.07,0,1,0,.09,6.1,4.15,4.15,0,0,0,2.47-.78v1.12a5.17,5.17,0,0,1-2.53.6c-2.61,0-4.5-1.7-4.5-4s1.78-4,4.48-4" fill="#fff"/>
  <path d="M43.64,125.89a5.43,5.43,0,0,1,2.42.55v1.11a4.46,4.46,0,0,0-2.43-.72,3.07,3.07,0,1,0,.09,6.1,4.15,4.15,0,0,0,2.47-.78v1.12a5.17,5.17,0,0,1-2.53.6c-2.61,0-4.5-1.7-4.5-4S40.94,125.89,43.64,125.89Z" fill="none" stroke="#fff" stroke-miterlimit="10" stroke-width="0.25"/>
  <polyline points="53.07 126.01 54.2 126.01 54.2 129.27 58.88 129.27 58.88 126.01 60.01 126.01 60.01 133.76 58.88 133.76 58.88 130.19 54.2 130.19 54.2 133.76 53.07 133.76 53.07 126.01" fill="#fff"/>
  <polygon points="53.07 126.01 54.2 126.01 54.2 129.27 58.88 129.27 58.88 126.01 60.01 126.01 60.01 133.76 58.88 133.76 58.88 130.19 54.2 130.19 54.2 133.76 53.07 133.76 53.07 126.01" fill="none" stroke="#fff" stroke-miterlimit="10" stroke-width="0.25"/>
  <rect x="67.28" y="126.01" width="1.13" height="7.74" fill="#fff"/>
  <rect x="67.28" y="126.01" width="1.13" height="7.74" fill="none" stroke="#fff" stroke-miterlimit="10" stroke-width="0.25"/>
  <polyline points="77.84 126.93 74.95 126.93 74.95 126.01 81.86 126.01 81.86 126.93 78.97 126.93 78.97 133.76 77.84 133.76 77.84 126.93" fill="#fff"/>
  <polygon points="77.84 126.93 74.95 126.93 74.95 126.01 81.86 126.01 81.86 126.93 78.97 126.93 78.97 133.76 77.84 133.76 77.84 126.93" fill="none" stroke="#fff" stroke-miterlimit="10" stroke-width="0.25"/>
  <polyline points="88.4 126.01 93.36 126.01 93.36 126.93 89.53 126.93 89.53 129.28 92.89 129.28 92.89 130.17 89.53 130.17 89.53 132.84 93.47 132.84 93.47 133.76 88.4 133.76 88.4 126.01" fill="#fff"/>
  <polygon points="88.4 126.01 93.36 126.01 93.36 126.93 89.53 126.93 89.53 129.28 92.89 129.28 92.89 130.17 89.53 130.17 89.53 132.84 93.47 132.84 93.47 133.76 88.4 133.76 88.4 126.01" fill="none" stroke="#fff" stroke-miterlimit="10" stroke-width="0.25"/>
  <path d="M104.29,125.89a5.47,5.47,0,0,1,2.43.55v1.11a4.47,4.47,0,0,0-2.44-.72,3.11,3.11,0,0,0-3.34,3,3.14,3.14,0,0,0,3.44,3.05,4.18,4.18,0,0,0,2.47-.78v1.12a5.23,5.23,0,0,1-2.53.6c-2.62,0-4.51-1.7-4.51-4s1.79-4,4.48-4" fill="#fff"/>
  <path d="M104.29,125.89a5.47,5.47,0,0,1,2.43.55v1.11a4.47,4.47,0,0,0-2.44-.72,3.11,3.11,0,0,0-3.34,3,3.14,3.14,0,0,0,3.44,3.05,4.18,4.18,0,0,0,2.47-.78v1.12a5.23,5.23,0,0,1-2.53.6c-2.62,0-4.51-1.7-4.51-4S101.6,125.89,104.29,125.89Z" fill="none" stroke="#fff" stroke-miterlimit="10" stroke-width="0.25"/>
  <polyline points="115.87 126.93 112.98 126.93 112.98 126.01 119.89 126.01 119.89 126.93 117 126.93 117 133.76 115.87 133.76 115.87 126.93" fill="#fff"/>
  <polygon points="115.87 126.93 112.98 126.93 112.98 126.01 119.89 126.01 119.89 126.93 117 126.93 117 133.76 115.87 133.76 115.87 126.93" fill="none" stroke="#fff" stroke-miterlimit="10" stroke-width="0.25"/>
  <path d="M126.19,132.15a4.84,4.84,0,0,0,2.61.79c1,0,1.75-.42,1.75-1.26,0-1-1-1.16-2.14-1.45s-2.39-.76-2.39-2.17,1.1-2.17,2.78-2.17a5.35,5.35,0,0,1,2.47.58v1.07a5,5,0,0,0-2.5-.72c-1,0-1.64.38-1.64,1.17,0,1,1,1.12,2.05,1.39,1.25.32,2.48.77,2.48,2.25s-1.15,2.24-2.87,2.24a5.74,5.74,0,0,1-2.6-.61v-1.11" fill="#fff"/>
  <path d="M126.19,132.15a4.84,4.84,0,0,0,2.61.79c1,0,1.75-.42,1.75-1.26,0-1-1-1.16-2.14-1.45s-2.39-.76-2.39-2.17,1.1-2.17,2.78-2.17a5.35,5.35,0,0,1,2.47.58v1.07a5,5,0,0,0-2.5-.72c-1,0-1.64.38-1.64,1.17,0,1,1,1.12,2.05,1.39,1.25.32,2.48.77,2.48,2.25s-1.15,2.24-2.87,2.24a5.74,5.74,0,0,1-2.6-.61Z" fill="none" stroke="#fff" stroke-miterlimit="10" stroke-width="0.25"/>
</svg>
