<?xml version="1.0" encoding="utf-8"?>
<!-- Generator: Adobe Illustrator 22.1.0, SVG Export Plug-In . SVG Version: 6.00 Build 0)  -->
<svg version="1.1" id="Layer_1" xmlns="http://www.w3.org/2000/svg" xmlns:xlink="http://www.w3.org/1999/xlink" x="0px" y="0px"
	 viewBox="0 0 159 159" style="enable-background:new 0 0 159 159;" xml:space="preserve">
<style type="text/css">
	.st0{fill:#FFFFFF;}
</style>
<title>crump-white-logo</title>
<path class="st0" d="M0,0v159h159V0H0z M157.4,157.4H1.6V1.6h155.7V157.4z M22.7,44.9h1.8V16.9h11.3v-1.7H11.4v1.7h11.3V44.9z
	 M40.9,30.3h20.8v14.5h1.8V15.2h-1.8v13.4H40.9V15.2H39v29.6h1.8V30.3z M85.2,43.2H68.9V30.3h14.2v-1.7H68.9V16.9h15.9v-1.7H67.1
	v29.6h18.1V43.2z M31.7,89.4v-1.7H13.5v29.6h1.8v-14H30v-1.7H15.4V89.4H31.7z M35.9,117.3h1.8V87.7h-1.8V117.3z M63.2,95.7
	c0-2.4-1.2-4.6-3.1-5.9c-2-1.4-4.8-2.1-9-2.1h-8.9v29.6h1.8v-13.5h8l11.1,13.5h2.3l-11.3-13.7c2.3-0.1,4.5-0.9,6.3-2.2
	C62.2,100,63.2,97.9,63.2,95.7z M59.3,100.1c-1.6,1.3-4,2-7.5,2h-7.8V89.4h7c3.9,0,6.1,0.5,7.8,1.7c2.6,1.8,3.3,5.3,1.5,7.9
	C60.1,99.4,59.7,99.7,59.3,100.1L59.3,100.1z M68.8,90.9L81.9,108l13.2-17.1v26.4H97V87.7h-1.6l-13.4,17.4L68.6,87.8l-0.1-0.2h-1.6
	v29.6h1.8V90.9z M11.6,66.2c0,8.8,7.2,15.2,17.1,15.2c3.1,0,6.1-0.6,8.9-1.9l0.2-0.1v-2l-0.6,0.3c-2.6,1.3-5.5,2-8.5,2
	c-8.8,0-15.3-5.7-15.3-13.6s6.4-13.5,15.3-13.5c2.7,0,5.4,0.6,7.8,1.8l0.6,0.3v-2l-0.2-0.1c-2.6-1.1-5.4-1.7-8.2-1.7
	C18.8,50.9,11.6,57.3,11.6,66.2z M60,65.1c1.7-1.4,2.7-3.4,2.7-5.7c0-2.4-1.2-4.6-3.1-5.9c-2-1.4-4.8-2.1-9-2.1h-8.9V81h1.8V67.4h8
	L62.7,81H65L53.7,67.3C56,67.2,58.2,66.4,60,65.1z M51.3,65.8h-7.8V53h7c3.9,0,6.1,0.5,7.8,1.7c2.6,1.7,3.3,5.3,1.5,7.8
	c-0.3,0.5-0.7,0.9-1.1,1.2C57.2,65.1,54.8,65.8,51.3,65.8L51.3,65.8z M72.1,77.5c-2.2-2-3.1-5-3.1-10.8V51.4h-1.8v15.4
	c0,6.2,1,9.6,3.6,11.9c2,1.8,4.9,2.8,8.6,2.8c4.5,0,7.7-1.3,9.8-4c1.8-2.3,2.5-5.3,2.5-10.7V51.4h-1.8v15.4c0,5.1-0.6,7.8-2.2,9.8
	c-1.7,2.2-4.4,3.2-8.2,3.2C76.2,79.7,73.8,79,72.1,77.5z M97.1,54.6l13.2,17.1l13.2-17.1V81h1.8V51.4h-1.6l-13.4,17.4L96.9,51.4
	h-1.6V81h1.8L97.1,54.6z M130.3,68.2h6.9c4.4,0,7.4-0.7,9.5-2.2c3.4-2.4,4.3-7.2,1.8-10.6c-0.5-0.7-1.1-1.3-1.8-1.8
	c-2.1-1.5-5.1-2.2-9.5-2.2h-8.8V81h1.8L130.3,68.2z M130.3,53.1h6.9c5.1,0,7,0.9,8.3,1.9c2.7,1.9,3.3,5.7,1.4,8.4
	c-0.4,0.5-0.9,1-1.4,1.4c-1.3,1-3.2,1.9-8.3,1.9h-6.9V53.1z M151.3,128.3H6.5v1.7h144.8L151.3,128.3z M19.2,138h-1.5l-4.1,8.9h1.7
	l1.1-2.4h4l1,2.4h1.8l-4-8.8L19.2,138z M17.1,143.1l0.6-1.4c0.3-0.6,0.5-1.1,0.7-1.7l0.7,1.6l0.6,1.4H17.1z M35.3,142.8
	c0.8-0.4,1.3-1.3,1.3-2.2c0-0.9-0.6-1.8-1.4-2.2c-0.9-0.4-1.8-0.5-2.7-0.4h-2.8v8.9h1.7v-3.6h1.3l2.9,3.6h2l-3.1-3.8
	C34.8,143,35,142.9,35.3,142.8L35.3,142.8z M32.8,141.9h-1.4v-2.5h1c0.7-0.1,1.3,0,1.9,0.3c0.4,0.2,0.6,0.6,0.6,1
	c0,0.4-0.2,0.7-0.5,0.9C33.9,141.9,33.3,142,32.8,141.9L32.8,141.9z M48.6,145.5c-2,0-3.5-1.3-3.5-3.1c0-1.7,1.5-3.1,3.2-3.1
	c0.1,0,0.1,0,0.2,0c0.9,0,1.8,0.3,2.5,0.7l0.3,0.2v-1.8l-0.1-0.1c-0.9-0.4-1.8-0.6-2.8-0.6c-3,0-5.1,1.9-5.1,4.6s2.2,4.5,5.1,4.5
	c1,0,2-0.2,2.9-0.7l0.1-0.1v-1.8l-0.3,0.2C50.4,145.3,49.5,145.6,48.6,145.5L48.6,145.5z M64.9,141.5h-4.7V138h-1.7v8.9h1.7V143h4.7
	v3.9h1.7V138h-1.7V141.5z M74.1,146.9h1.7V138h-1.7V146.9z M82.4,139.4h3.2v7.4h1.7v-7.4h3.2V138h-8L82.4,139.4z M98.8,143h3.7v-1.4
	h-3.7v-2.1h4.2V138h-5.9v8.9h6v-1.4h-4.3L98.8,143z M114.8,145.6c-1.8,0.2-3.4-1.1-3.5-2.9c0-0.1,0-0.1,0-0.2c0-1.8,1.5-3.1,3.2-3.1
	c0.1,0,0.1,0,0.2,0c0.9,0,1.8,0.3,2.5,0.7l0.3,0.2v-1.8l-0.1-0.1c-0.9-0.4-1.8-0.6-2.8-0.6c-3,0-5.1,1.9-5.1,4.6s2.2,4.5,5.1,4.5
	c1,0,2-0.2,2.9-0.7l0.1-0.1v-1.8l-0.3,0.2C116.6,145.3,115.7,145.6,114.8,145.6L114.8,145.6z M123.9,139.5h3.2v7.4h1.7v-7.4h3.1V138
	h-8L123.9,139.5z M141.9,141.7l-0.3-0.1c-1.1-0.3-1.8-0.5-1.8-1.2c0-0.9,1-1.1,1.6-1.1c0.9,0,1.8,0.3,2.6,0.8l0.3,0.2v-1.7l-0.1-0.1
	c-0.9-0.4-1.8-0.7-2.8-0.7c-2,0-3.2,1-3.2,2.6c0,1.9,1.8,2.3,2.8,2.6l0.3,0.1c1.2,0.3,1.9,0.5,1.9,1.3c0,1-1.2,1.1-1.7,1.1
	c-1,0-1.9-0.3-2.7-0.8l-0.3-0.2v1.8l0.1,0.1c0.9,0.5,1.9,0.7,2.9,0.7c2,0,3.4-1,3.4-2.7C144.7,142.6,143.3,142.1,141.9,141.7
	L141.9,141.7z"/>
</svg>
