<?xml version="1.0" encoding="utf-8"?>
<!-- Generator: Adobe Illustrator 22.1.0, SVG Export Plug-In . SVG Version: 6.00 Build 0)  -->
<svg version="1.1" id="Layer_1" xmlns="http://www.w3.org/2000/svg" xmlns:xlink="http://www.w3.org/1999/xlink" x="0px" y="0px"
	 viewBox="0 0 188.5 47" style="enable-background:new 0 0 188.5 47;" xml:space="preserve">
<style type="text/css">
	.st0{fill:#FFFFFF;}
</style>
<path class="st0" d="M21.6,41.8l-2.2-5.5c-0.3-0.7-0.9-1.5-0.9-1.5v-0.1c4.5-1,7.3-4.9,7.3-8.9c0-2.9-1.4-4.8-3.3-5.8
	c-1.4-0.7-3.1-0.9-4.9-0.9H5.4l-0.6,3h3.5L4.1,43.5H0.6l-0.6,3h10.8l0.6-3H8l1.6-8h3.5c1.3,0,2,0.3,2.5,1.6l2.2,6
	c0.8,2,1.6,3.7,4.8,3.7c0.6,0,1.5,0,1.8-0.1l0.6-3c0,0-0.7,0.1-1.1,0.1C22.4,43.6,22.1,42.9,21.6,41.8z M15.6,32.3h-5.4l2-10h4.6
	c1.4,0,2.7,0.2,3.5,0.7c0.9,0.6,1.5,1.6,1.5,3.2C21.8,29.9,18.9,32.3,15.6,32.3z M36.5,26.4C30,26.4,24,31.6,24,38.3
	c0,5.1,3.8,8.7,9.1,8.7c6.4,0,12.5-5.2,12.5-12C45.7,29.9,41.9,26.4,36.5,26.4z M33.5,43.7c-3.3,0-5.6-2.3-5.6-5.6
	c0-4.8,4.2-8.5,8.3-8.5c3.3,0,5.6,2.2,5.6,5.5C41.8,40,37.6,43.7,33.5,43.7z M55.9,43.7c-3.7,0-5.9-2.2-5.9-5.6c0-4.5,4-8.4,8.3-8.4
	c1.9,0,4.1,0.7,3.8,2.3l-0.3,1.3h3.4l0.5-2.2c0.6-3.5-4.1-4.6-7-4.6c-7,0-12.6,5.6-12.6,12c0,5.1,3.7,8.6,9.5,8.6
	c5.2,0,8.2-2.9,8.2-2.9l-1.1-2.9C62.7,41.2,59.9,43.7,55.9,43.7z M78.9,42l-2.2-4.7c-0.5-1.1-1.1-1.5-1.1-1.5v-0.1l6.4-5.9h2.3
	l0.6-2.9H76l-0.6,2.9H78l-5,4.6h-2.5l3-15.4h-7.1l-0.6,3h3.3l-4.8,24.5h3.8l1.9-9.2h1.6c0.9,0,1.3,0.2,1.6,0.9l2.2,4.9
	c0.9,1.9,1.4,3.5,4.6,3.5c0.6,0,1.4,0,1.7-0.1l0.6-2.9c0,0-0.8,0-1.1,0C79.8,43.7,79.3,43,78.9,42z M93.4,26.4
	c-6.7,0-11.6,5.7-11.6,12.2c0,4.9,3.5,8.4,9.3,8.4c4.3,0,7.6-2.6,7.6-2.6l-1.1-3c0,0-2.9,2.3-6.3,2.3c-3.7,0-5.7-2.3-5.7-5.3
	c0-0.7,0.2-1.4,0.2-1.4h14.4c0,0,0.6-1.8,0.6-3.4C100.9,29.4,98.5,26.4,93.4,26.4z M97,34.6H86.4c1.2-3.3,4-5.2,6.9-5.2
	c2.3,0,3.8,1.3,3.8,4C97.1,34,97,34.6,97,34.6z M105.8,40.5c0-0.4,0-1,0.2-1.5l1.8-9.2h4.8l0.6-2.9h-4.8l1.1-5.4h-3.7l-1.1,5.4h-3.4
	l-0.6,2.9h3.3l-1.8,9.2c-0.2,0.7-0.2,1.4-0.2,2c0,4.7,3.3,5.8,6.4,5.8c0.6,0,1.2-0.1,1.2-0.1l0.6-3.1c0,0-0.5,0.1-1.1,0.1
	C107.6,43.6,105.8,43.2,105.8,40.5z"/>
<g>
	<path class="st0" d="M185.6,17.6c-1.7,0-3,1.3-3,2.9s1.3,2.9,3,2.9s2.9-1.3,2.9-2.9S187.2,17.6,185.6,17.6z M185.6,22.9
		c-1.3,0-2.2-1-2.2-2.3s1-2.3,2.2-2.3c1.3,0,2.2,1.1,2.2,2.4C187.8,21.9,186.8,22.9,185.6,22.9z"/>
	<path class="st0" d="M186.2,20.6L186.2,20.6c0.3-0.1,0.6-0.4,0.6-0.7c0-0.3-0.1-0.5-0.3-0.6s-0.4-0.2-1-0.2c-0.5,0-0.8,0-1.1,0.1
		v2.9h0.7v-1.2h0.3c0.4,0,0.5,0.1,0.6,0.5s0.1,0.6,0.2,0.7h0.7c0-0.1-0.1-0.3-0.2-0.7C186.6,21,186.5,20.7,186.2,20.6z M185.4,20.4
		h-0.3v-0.8c0.1,0,0.2,0,0.4,0c0.4,0,0.6,0.2,0.6,0.5C186.1,20.3,185.8,20.4,185.4,20.4z"/>
	<polygon class="st0" points="122.7,22.4 131.1,22.4 130.5,25.6 133.9,25.6 135.2,19.1 116,19.1 115.4,22.1 118.9,22.1 114.7,43.5 
		111.2,43.5 110.6,46.5 121.7,46.5 122.3,43.5 118.6,43.5 120.3,34.7 130,34.7 130.7,31.5 120.9,31.5 	"/>
	<path class="st0" d="M149.9,42c0-0.3,0-0.8,0.1-1.2l2.7-13.9h-7.1l-0.6,2.9h3.3l-1.2,6c-0.7,3.7-3.9,7.8-7.9,7.8c-2.2,0-3-1-3-2.8
		c0-0.6,0.1-1.4,0.3-2.2l2.3-11.7h-7.1l-0.6,2.9h3.3l-1.8,9.6c-0.2,0.9-0.3,1.8-0.3,2.5c0,3.7,2.6,5.2,5.6,5.2
		c4.2,0,6.9-2.7,8.2-4.7h0.1c-0.3,3,1.3,4.3,4,4.3c0.9,0,1.8-0.1,1.8-0.1l0.6-2.9c0,0-0.3,0.1-0.9,0.1
		C150.7,43.7,149.9,43.4,149.9,42z"/>
	<path class="st0" d="M164.3,26.4c-6.7,0-11.6,5.7-11.6,12.2c0,4.9,3.5,8.4,9.3,8.4c4.3,0,7.6-2.6,7.6-2.6l-1.1-3
		c0,0-2.9,2.3-6.4,2.3c-3.6,0-5.6-2.3-5.6-5.3c0-0.7,0.2-1.4,0.2-1.4h14.4c0,0,0.6-1.8,0.6-3.4C171.8,29.4,169.4,26.4,164.3,26.4z
		 M167.9,34.6h-10.6c1.2-3.3,4-5.2,6.9-5.2c2.3,0,3.8,1.3,3.8,4C168,34,167.9,34.6,167.9,34.6z"/>
	<path class="st0" d="M180.4,19.1h-7.1l-0.6,2.9h3.3l-3.7,18.9c-0.1,0.7-0.2,1.3-0.2,1.8c0,3.5,2.6,3.9,4.5,3.9
		c0.8,0,1.6-0.1,1.6-0.1l0.6-3.1c0,0-0.4,0.1-0.9,0.1c-1,0-1.8-0.2-1.8-1.6c0-0.3,0.1-0.9,0.2-1.3L180.4,19.1z"/>
</g>
<g>
	<path class="st0" d="M183,9c-6.4-3.2-13.6-4.9-21.3-4.9c-1.5,0-3,0.1-4.5,0.2c-3.8-2.7-7.8-4.3-12.9-4.3c2.1,1.6,3.2,3.6,4.7,5.9
		c-0.3,1.4-0.4,2.9-0.4,4.4s0.2,3,0.4,4.4c-1.5,2.3-2.5,4.2-4.7,5.9c5.1,0,9-1.6,12.8-4.3c1.5,0.1,3,0.2,4.5,0.2
		c7.7,0,14.9-1.8,21.3-4.9c1.8-0.5,3.6-0.9,5.5-1.2C186.6,10,184.8,9.6,183,9z M164.9,13.2c-1.6,0-3-1.3-3-2.9s1.3-2.9,3-2.9
		s3,1.3,3,2.9S166.6,13.2,164.9,13.2z"/>
	<path class="st0" d="M147.3,14.3c-0.2-0.9-0.2-1.8-0.3-2.7c0-0.5,0-0.9,0-1.3c0-0.4,0-0.9,0-1.3c0-0.9,0.1-1.8,0.3-2.7
		c-0.9,0.3-1.8,0.6-2.7,1c-0.8,0.3-1.6,0.7-2.4,1c-0.5,0.5-0.8,1.3-0.8,2.1c0,0.8,0.3,1.5,0.8,2.1c0.8,0.3,1.6,0.7,2.4,1
		C145.4,13.7,146.4,14,147.3,14.3z"/>
	<path class="st0" d="M137.7,8.1L1.5,10.3l136.2,2.2c1.2,0,2.2-1,2.2-2.2S138.9,8.1,137.7,8.1z"/>
</g>
</svg>
