<svg xmlns="http://www.w3.org/2000/svg" viewBox="0 0 188.5 47.1">
  <title>rocket-logo</title>
  <path d="M21.6,41.8l-2.2-5.5a8.9,8.9,0,0,0-.9-1.5v-.1a9.21,9.21,0,0,0,7.3-8.9A6.18,6.18,0,0,0,22.5,20a11,11,0,0,0-4.9-.9H5.4l-.6,3H8.3L4.1,43.5H.6l-.6,3H10.8l.6-3H8l1.6-8h3.5a2.21,2.21,0,0,1,2.5,1.6l2.2,6c.8,2,1.6,3.7,4.8,3.7a9.18,9.18,0,0,0,1.8-.1l.6-3a10.42,10.42,0,0,1-1.1.1C22.4,43.6,22.1,42.9,21.6,41.8Zm-6-9.5H10.2l2-10h4.6a7,7,0,0,1,3.5.7,3.56,3.56,0,0,1,1.5,3.2A6,6,0,0,1,15.6,32.3Zm20.9-5.9C30,26.4,24,31.6,24,38.3c0,5.1,3.8,8.7,9.1,8.7,6.4,0,12.5-5.2,12.5-12C45.7,29.9,41.9,26.4,36.5,26.4Zm-3,17.3a5.35,5.35,0,0,1-5.6-5.6,8.66,8.66,0,0,1,8.3-8.5,5.28,5.28,0,0,1,5.6,5.5A8.68,8.68,0,0,1,33.5,43.7Zm22.4,0c-3.7,0-5.9-2.2-5.9-5.6a8.64,8.64,0,0,1,8.3-8.4c1.9,0,4.1.7,3.8,2.3l-.3,1.3h3.4l.5-2.2c.6-3.5-4.1-4.6-7-4.6-7,0-12.6,5.6-12.6,12,0,5.1,3.7,8.6,9.5,8.6a12.41,12.41,0,0,0,8.2-2.9l-1.1-2.9A12.13,12.13,0,0,1,55.9,43.7Zm23-1.7-2.2-4.7a3.68,3.68,0,0,0-1.1-1.5v-.1L82,29.8h2.3l.6-2.9H76l-.6,2.9H78l-5,4.6H70.5l3-15.4H66.4l-.6,3h3.3L64.3,46.5h3.8L70,37.3h1.6c.9,0,1.3.2,1.6.9l2.2,4.9c.9,1.9,1.4,3.5,4.6,3.5a8.12,8.12,0,0,0,1.7-.1l.6-2.9H81.2A2,2,0,0,1,78.9,42ZM93.4,26.4c-6.7,0-11.6,5.7-11.6,12.2,0,4.9,3.5,8.4,9.3,8.4a13.57,13.57,0,0,0,7.6-2.6l-1.1-3a11.5,11.5,0,0,1-6.3,2.3c-3.7,0-5.7-2.3-5.7-5.3a5.85,5.85,0,0,1,.2-1.4h14.4a12.68,12.68,0,0,0,.6-3.4C100.9,29.4,98.5,26.4,93.4,26.4ZM97,34.6H86.4a7.47,7.47,0,0,1,6.9-5.2c2.3,0,3.8,1.3,3.8,4A8.37,8.37,0,0,1,97,34.6Zm8.8,5.9A4.14,4.14,0,0,1,106,39l1.8-9.2h4.8l.6-2.9h-4.8l1.1-5.4h-3.7l-1.1,5.4h-3.4l-.6,2.9H104L102.2,39a7.14,7.14,0,0,0-.2,2c0,4.7,3.3,5.8,6.4,5.8a8.37,8.37,0,0,0,1.2-.1l.6-3.1a6.27,6.27,0,0,1-1.1.1C107.6,43.6,105.8,43.2,105.8,40.5Z" transform="translate(0 0)" fill="#58595b"/>
  <g>
    <path d="M185.6,17.6a2.9,2.9,0,1,0,0,5.8,2.84,2.84,0,0,0,2.9-2.9A2.9,2.9,0,0,0,185.6,17.6Zm0,5.3a2.18,2.18,0,0,1-2.2-2.3,2.24,2.24,0,0,1,2.2-2.3,2.27,2.27,0,0,1,2.2,2.4A2.22,2.22,0,0,1,185.6,22.9Z" transform="translate(0 0)" fill="#0079c1"/>
    <path d="M186.2,20.6h0a.86.86,0,0,0,.6-.7.6.6,0,0,0-.3-.6,1.85,1.85,0,0,0-1-.2,3.42,3.42,0,0,0-1.1.1v2.9h.7V20.9h.3c.4,0,.5.1.6.5s.1.6.2.7h.7c0-.1-.1-.3-.2-.7S186.5,20.7,186.2,20.6Zm-.8-.2h-.3v-.8h.4c.4,0,.6.2.6.5S185.8,20.4,185.4,20.4Z" transform="translate(0 0)" fill="#0079c1"/>
    <polygon points="122.7 22.4 131.1 22.4 130.5 25.6 133.9 25.6 135.2 19.1 116 19.1 115.4 22.1 118.9 22.1 114.7 43.5 111.2 43.5 110.6 46.5 121.7 46.5 122.3 43.5 118.6 43.5 120.3 34.7 130 34.7 130.7 31.5 120.9 31.5 122.7 22.4" fill="#0079c1"/>
    <path d="M149.9,42a5.28,5.28,0,0,1,.1-1.2l2.7-13.9h-7.1l-.6,2.9h3.3l-1.2,6c-.7,3.7-3.9,7.8-7.9,7.8-2.2,0-3-1-3-2.8a9.58,9.58,0,0,1,.3-2.2l2.3-11.7h-7.1l-.6,2.9h3.3l-1.8,9.6a12.07,12.07,0,0,0-.3,2.5c0,3.7,2.6,5.2,5.6,5.2a9.85,9.85,0,0,0,8.2-4.7h.1c-.3,3,1.3,4.3,4,4.3.9,0,1.8-.1,1.8-.1l.6-2.9a3.14,3.14,0,0,1-.9.1C150.7,43.7,149.9,43.4,149.9,42Z" transform="translate(0 0)" fill="#0079c1"/>
    <path d="M164.3,26.4c-6.7,0-11.6,5.7-11.6,12.2,0,4.9,3.5,8.4,9.3,8.4a13.57,13.57,0,0,0,7.6-2.6l-1.1-3a11.59,11.59,0,0,1-6.4,2.3c-3.6,0-5.6-2.3-5.6-5.3a5.85,5.85,0,0,1,.2-1.4h14.4a12.68,12.68,0,0,0,.6-3.4C171.8,29.4,169.4,26.4,164.3,26.4Zm3.6,8.2H157.3a7.47,7.47,0,0,1,6.9-5.2c2.3,0,3.8,1.3,3.8,4A8.37,8.37,0,0,1,167.9,34.6Z" transform="translate(0 0)" fill="#0079c1"/>
    <path d="M180.4,19.1h-7.1l-.6,2.9H176l-3.7,18.9a14.05,14.05,0,0,0-.2,1.8c0,3.5,2.6,3.9,4.5,3.9a14.78,14.78,0,0,0,1.6-.1l.6-3.1a4.13,4.13,0,0,1-.9.1c-1,0-1.8-.2-1.8-1.6a6.88,6.88,0,0,1,.2-1.3Z" transform="translate(0 0)" fill="#0079c1"/>
  </g>
  <g>
    <path d="M183,9a47.32,47.32,0,0,0-21.3-4.9c-1.5,0-3,.1-4.5.2A21.28,21.28,0,0,0,144.3,0c2.1,1.6,3.2,3.6,4.7,5.9a21.19,21.19,0,0,0-.4,4.4,31.28,31.28,0,0,0,.4,4.4c-1.5,2.3-2.5,4.2-4.7,5.9a21,21,0,0,0,12.8-4.3c1.5.1,3,.2,4.5.2a48.67,48.67,0,0,0,21.3-4.9,48.78,48.78,0,0,1,5.5-1.2A53.62,53.62,0,0,1,183,9Zm-18.1,4.2a3,3,0,0,1-3-2.9,3,3,0,1,1,3,2.9Z" transform="translate(0 0)" fill="#0079c1"/>
    <path d="M147.3,14.3a24.77,24.77,0,0,1-.3-2.7V9a12.41,12.41,0,0,1,.3-2.7c-.9.3-1.8.6-2.7,1s-1.6.7-2.4,1a3,3,0,0,0-.8,2.1,3.23,3.23,0,0,0,.8,2.1c.8.3,1.6.7,2.4,1S146.4,14,147.3,14.3Z" transform="translate(0 0)" fill="#0079c1"/>
    <path d="M137.7,8.1,1.5,10.3l136.2,2.2a2.2,2.2,0,1,0,0-4.4Z" transform="translate(0 0)" fill="#0079c1"/>
  </g>
</svg>
