<svg xmlns="http://www.w3.org/2000/svg" width="198" height="22" viewBox="0 0 198 22"><g fill="#0079C1"><path d="M191.5 9.7c-6.7-3.3-14.4-5.2-22.4-5.2-1.6 0-3.2.1-4.8.2-4-2.9-8.2-4.5-13.5-4.6 2.2 1.7 3.4 3.8 4.9 6.2-.3 1.5-.5 3-.5 4.6 0 1.6.2 3.1.5 4.6-1.5 2.4-2.7 4.5-4.9 6.2 5.3 0 9.5-1.7 13.5-4.6 1.6.1 3.2.2 4.8.2 8.1 0 15.7-1.9 22.4-5.2 1.9-.6 3.7-1 5.8-1.3-2.1-.1-4-.6-5.8-1.1m-19 4.4c-1.7 0-3.1-1.4-3.1-3.1s1.4-3.1 3.1-3.1c1.7 0 3.1 1.4 3.1 3.1s-1.4 3.1-3.1 3.1M153.5 12.4V9.6c.1-1 .2-1.9.3-2.8-1 .3-1.9.7-2.9 1-.9.3-1.7.7-2.5 1.1-.5.6-.8 1.3-.8 2.2 0 .8.3 1.6.8 2.2.8.4 1.7.7 2.5 1.1.9.4 1.9.7 2.9 1-.1-1.1-.2-2-.3-3M143.8 8.7L.4 11l143.4 2.3c1.3 0 2.3-1 2.3-2.3s-1-2.3-2.3-2.3"/></g></svg>